<?xml version="1.0" encoding="utf-8"?>
<svg version="1.1" xmlns:xlink="http://www.w3.org/1999/xlink" width="10px" height="140px" preserveAspectRatio="xMidYMin meet" viewBox="10766 855  8 140" xmlns="http://www.w3.org/2000/svg">
  <path d="M 10743 865.5  L 10745.5 865.5  A 2.5 2.5 0 0 0 10748.5 863 A 2.5 2.5 0 0 1 10751 860.5 L 10765 860.5  A 5 5 0 0 1 10770.5 865.5 L 10770.5 985  A 5 5 0 0 1 10765.5 990.5 L 10355 990.5  A 5 5 0 0 1 10350.5 985.5 L 10350.5 887  A 5 5 0 0 0 10345.5 882.5 L 10333 882.5  " stroke-width="1" stroke-dasharray="3,1" stroke="#009dd9" fill="none" />
  <path d="M 10747 868  L 10747 863  L 10742 863  L 10742 868  L 10747 868  Z M 10337 885  L 10337 880  L 10332 880  L 10332 885  L 10337 885  Z " fill-rule="nonzero" fill="#009dd9" stroke="none" />
</svg>