<?xml version="1.0" encoding="utf-8"?>
<svg version="1.1" xmlns:xlink="http://www.w3.org/1999/xlink" width="6px" height="13px" xmlns="http://www.w3.org/2000/svg">
  <g transform="matrix(1 0 0 1 -899 -2707 )">
    <path d="M 5.92987012987013 2.96412037037037  C 5.9974025974026 3.04436728395062  6.01038961038961 3.13213734567901  5.96883116883117 3.22743055555555  C 5.92207792207792 3.3227237654321  5.84675324675325 3.37037037037037  5.74285714285714 3.37037037037037  L 3.9974025974026 3.37037037037037  L 3.9974025974026 12.7592592592593  C 3.9974025974026 12.829475308642  3.97402597402597 12.8871527777778  3.92727272727273 12.9322916666667  C 3.88051948051948 12.9774305555556  3.82077922077922 13  3.74805194805195 13  L 2.25194805194805 13  C 2.17922077922078 13  2.11948051948052 12.9774305555556  2.07272727272727 12.9322916666667  C 2.02597402597403 12.8871527777778  2.0025974025974 12.829475308642  2.0025974025974 12.7592592592593  L 2.0025974025974 3.37037037037037  L 0.257142857142857 3.37037037037037  C 0.148051948051948 3.37037037037037  0.0727272727272727 3.3227237654321  0.0311688311688312 3.22743055555555  C -0.0103896103896104 3.13213734567901  0.00259740259740259 3.04436728395062  0.0701298701298701 2.96412037037037  L 2.7974025974026 0.0752314814814822  C 2.84935064935065 0.0250771604938269  2.90909090909091 0  2.97662337662338 0  C 3.04935064935065 0  3.11168831168831 0.0250771604938269  3.16363636363636 0.0752314814814822  L 5.92987012987013 2.96412037037037  Z " fill-rule="nonzero" fill="#ffffff" stroke="none" transform="matrix(1 0 0 1 899 2707 )" />
  </g>
</svg>