<?xml version="1.0" encoding="utf-8"?>
<svg version="1.1" xmlns:xlink="http://www.w3.org/1999/xlink" width="9px" height="10px" xmlns="http://www.w3.org/2000/svg">
  <g transform="matrix(1 0 0 1 -587 -2092 )">
    <path d="M 5.32919254658385 8.93787575150301  C 5.39130434782609 9.00467601870407  5.42236024844721 9.0814963259853  5.42236024844721 9.16833667334669  C 5.42236024844721 9.25517702070808  5.39130434782609 9.33199732798931  5.32919254658385 9.39879759519038  L 4.86335403726708 9.8997995991984  C 4.80124223602485 9.96659986639947  4.72981366459627 10  4.64906832298137 10  C 4.56832298136646 10  4.49689440993789 9.96659986639947  4.43478260869565 9.8997995991984  L 0.093167701863354 5.23046092184369  C 0.031055900621118 5.16366065464262  0 5.08684034736139  0 5  C 0 4.91315965263861  0.031055900621118 4.83633934535738  0.093167701863354 4.76953907815631  L 4.43478260869565 0.100200400801603  C 4.49689440993789 0.0334001336005341  4.56832298136646 0  4.64906832298137 0  C 4.72981366459627 0  4.80124223602485 0.0334001336005341  4.86335403726708 0.100200400801603  L 5.32919254658385 0.601202404809619  C 5.39130434782609 0.668002672010687  5.42236024844721 0.744822979291916  5.42236024844721 0.831663326653307  C 5.42236024844721 0.918503674014696  5.39130434782609 0.995323981295925  5.32919254658385 1.06212424849699  L 1.66770186335404 5  L 5.32919254658385 8.93787575150301  Z M 8.90683229813665 8.93787575150301  C 8.96894409937888 9.00467601870407  9 9.0814963259853  9 9.16833667334669  C 9 9.25517702070808  8.96894409937888 9.33199732798931  8.90683229813665 9.39879759519038  L 8.44099378881988 9.8997995991984  C 8.37888198757764 9.96659986639947  8.30745341614907 10  8.22670807453416 10  C 8.14596273291926 10  8.07453416149068 9.96659986639947  8.01242236024845 9.8997995991984  L 3.67080745341615 5.23046092184369  C 3.60869565217391 5.16366065464262  3.5776397515528 5.08684034736139  3.57763975155279 5  C 3.5776397515528 4.91315965263861  3.60869565217391 4.83633934535738  3.67080745341615 4.76953907815631  L 8.01242236024845 0.100200400801603  C 8.07453416149068 0.0334001336005341  8.14596273291926 0  8.22670807453416 0  C 8.30745341614907 0  8.37888198757764 0.0334001336005341  8.44099378881988 0.100200400801603  L 8.90683229813665 0.601202404809619  C 8.96894409937888 0.668002672010687  9 0.744822979291916  9 0.831663326653307  C 9 0.918503674014696  8.96894409937888 0.995323981295925  8.90683229813665 1.06212424849699  L 5.24534161490683 5  L 8.90683229813665 8.93787575150301  Z " fill-rule="nonzero" fill="#333333" stroke="none" transform="matrix(1 0 0 1 587 2092 )" />
  </g>
</svg>