<?xml version="1.0" encoding="utf-8"?>
<svg version="1.1" xmlns:xlink="http://www.w3.org/1999/xlink" width="204px" height="10px" preserveAspectRatio="xMinYMid meet" viewBox="3986 2106  204 8" xmlns="http://www.w3.org/2000/svg">
  <path d="M 4185.5 2119  L 4185.5 2115  A 5 5 0 0 0 4180.5 2110.5 L 3996 2110.5  A 5 5 0 0 0 3991.5 2115.5 A 5 5 0 0 1 3986.5 2120.5 L 3825 2120.5  A 5 5 0 0 1 3820.5 2115.5 L 3820.5 1932  A 5 5 0 0 0 3815.5 1927.5 L 3802 1927.5  " stroke-width="1" stroke-dasharray="3,1" stroke="#009dd9" fill="none" />
  <path d="M 4188 2115  L 4183 2115  L 4183 2120  L 4188 2120  L 4188 2115  Z M 3806 1930  L 3806 1925  L 3801 1925  L 3801 1930  L 3806 1930  Z " fill-rule="nonzero" fill="#009dd9" stroke="none" />
</svg>