<?xml version="1.0" encoding="utf-8"?>
<svg version="1.1" xmlns:xlink="http://www.w3.org/1999/xlink" width="16px" height="10px" preserveAspectRatio="xMinYMid meet" viewBox="6949 1788  16 8" xmlns="http://www.w3.org/2000/svg">
  <path d="M 7344.5 1974  L 7344.5 1965  A 5 5 0 0 1 7349.5 1960.5 L 7375 1960.5  A 5 5 0 0 1 7380.5 1965.5 L 7380.5 2082  A 5 5 0 0 1 7375.5 2087.5 L 6965 2087.5  A 5 5 0 0 1 6960.5 2082.5 L 6960.5 1797  A 5 5 0 0 0 6955.5 1792.5 L 6950 1792.5  " stroke-width="1" stroke-dasharray="3,1" stroke="#009dd9" fill="none" />
  <path d="M 7347 1970  L 7342 1970  L 7342 1975  L 7347 1975  L 7347 1970  Z M 6954 1795  L 6954 1790  L 6949 1790  L 6949 1795  L 6954 1795  Z " fill-rule="nonzero" fill="#009dd9" stroke="none" />
</svg>