<?xml version="1.0" encoding="utf-8"?>
<svg version="1.1" xmlns:xlink="http://www.w3.org/1999/xlink" width="14px" height="12px" xmlns="http://www.w3.org/2000/svg">
  <g transform="matrix(1 0 0 1 -3009 -796 )">
    <path d="M 11.6849067949489 6.58806818181818  C 11.7971537382241 6.63352272727273  11.8532772098617 6.71590909090909  11.8532772098617 6.83522727272727  L 11.8532772098617 9.54545454545455  C 11.8532772098617 10.2215909090909  11.6161555421928 10.7997159090909  11.1419122068551 11.2798295454545  C 10.6676688715173 11.7599431818182  10.0966125476047 12  9.42874323511726 12  L 2.42453397474444 12  C 1.75666466225697 12  1.18560833834436 11.7599431818182  0.711365003006615 11.2798295454545  C 0.237121667668871 10.7997159090909  0 10.2215909090909  0 9.54545454545455  L 0 2.45454545454546  C 0 1.77840909090909  0.237121667668871 1.20028409090909  0.711365003006615 0.720170454545455  C 1.18560833834436 0.240056818181817  1.75666466225697 0  2.42453397474444 0  L 9.42874323511726 0  C 9.78232110643416 0  10.1106434155141 0.0710227272727266  10.4137101623572 0.213068181818181  C 10.4978953698136 0.252840909090908  10.5484064942874 0.318181818181818  10.5652435357787 0.409090909090909  C 10.58208057727 0.505681818181818  10.5568250150331 0.588068181818181  10.489476849068 0.65625  L 10.0769693325316 1.07386363636364  C 10.020845860894 1.13068181818182  9.95630386851072 1.15909090909091  9.88334335538184 1.15909090909091  C 9.86650631389056 1.15909090909091  9.84125075165364 1.15340909090909  9.80757666867108 1.14204545454546  C 9.67849268390459 1.10795454545454  9.55221487271998 1.09090909090909  9.42874323511726 1.09090909090909  L 2.42453397474444 1.09090909090909  C 2.05411906193626 1.09090909090909  1.7370214471838 1.22443181818182  1.47324113048707 1.49147727272727  C 1.20946081379034 1.75852272727273  1.07757065544197 2.07954545454546  1.07757065544197 2.45454545454546  L 1.07757065544197 9.54545454545455  C 1.07757065544197 9.92045454545455  1.20946081379034 10.2414772727273  1.47324113048707 10.5085227272727  C 1.7370214471838 10.7755681818182  2.05411906193626 10.9090909090909  2.42453397474444 10.9090909090909  L 9.42874323511726 10.9090909090909  C 9.79915814792544 10.9090909090909  10.1162557626779 10.7755681818182  10.3800360793746 10.5085227272727  C 10.6438163960714 10.2414772727273  10.7757065544197 9.92045454545455  10.7757065544197 9.54545454545455  L 10.7757065544197 7.38068181818182  C 10.7757065544197 7.30681818181818  10.8009621166566 7.24431818181818  10.8514732411305 7.19318181818182  L 11.3902585688515 6.64772727272727  C 11.4463820404891 6.59090909090909  11.5109240328723 6.5625  11.5838845460012 6.5625  C 11.6175586289838 6.5625  11.6512327119663 6.57102272727273  11.6849067949489 6.58806818181818  Z M 14 2.18181818181818  C 14 2.36931818181818  13.9326518340349 2.53125  13.7979555021046 2.66761363636364  L 6.94527961515334 9.60511363636364  C 6.81058328322309 9.74147727272727  6.65063138905592 9.80965909090909  6.46542393265183 9.80965909090909  C 6.28021647624775 9.80965909090909  6.12026458208058 9.74147727272727  5.98556825015033 9.60511363636364  L 2.36560432952496 5.94034090909091  C 2.23090799759471 5.80397727272727  2.16355983162959 5.64204545454546  2.16355983162959 5.45454545454546  C 2.16355983162959 5.26704545454545  2.23090799759471 5.10511363636363  2.36560432952496 4.96875  L 3.2916416115454 4.03125  C 3.42633794347565 3.89488636363636  3.58628983764281 3.82670454545455  3.7714972940469 3.82670454545455  C 3.95670475045099 3.82670454545455  4.11665664461816 3.89488636363636  4.25135297654841 4.03125  L 6.46542393265183 6.27272727272727  L 11.9122068550812 0.758522727272728  C 12.0469031870114 0.622159090909091  12.2068550811786 0.553977272727272  12.3920625375827 0.553977272727272  C 12.5772699939868 0.553977272727272  12.7372218881539 0.622159090909091  12.8719182200842 0.758522727272728  L 13.7979555021046 1.69602272727273  C 13.9326518340349 1.83238636363636  14 1.99431818181818  14 2.18181818181818  Z " fill-rule="nonzero" fill="#000000" stroke="none" transform="matrix(1 0 0 1 3009 796 )" />
  </g>
</svg>