<?xml version="1.0" encoding="utf-8"?>
<svg version="1.1" xmlns:xlink="http://www.w3.org/1999/xlink" width="360px" height="10px" preserveAspectRatio="xMinYMid meet" viewBox="8185 686  360 8" xmlns="http://www.w3.org/2000/svg">
  <path d="M 8066 825.5  L 8185 825.5  A 5 5 0 0 0 8190.5 820 L 8190.5 771  A 3 3 0 0 0 8193.5 768 A 3 3 0 0 0 8190.5 765 L 8190.5 695  A 5 5 0 0 1 8195.5 690.5 L 8535 690.5  A 5 5 0 0 1 8540.5 695.5 L 8540.5 820  A 5 5 0 0 1 8535.5 825.5 L 8428 825.5  " stroke-width="1" stroke-dasharray="3,1" stroke="#009dd9" fill="none" />
  <path d="M 8432 828  L 8432 823  L 8427 823  L 8427 828  L 8432 828  Z " fill-rule="nonzero" fill="#009dd9" stroke="none" />
</svg>