<?xml version="1.0" encoding="utf-8"?>
<svg version="1.1" xmlns:xlink="http://www.w3.org/1999/xlink" width="16px" height="9px" xmlns="http://www.w3.org/2000/svg">
  <g transform="matrix(1 0 0 1 -2439 -788 )">
    <path d="M 15.703125 0.296875  C 15.9010416666667 0.494791666666666  16 0.729166666666664  16 1  C 16 1.27083333333333  15.9010416666667 1.50520833333333  15.703125 1.703125  L 8.703125 8.703125  C 8.50520833333333 8.90104166666667  8.27083333333333 9  8 9  C 7.72916666666667 9  7.49479166666667 8.90104166666667  7.296875 8.703125  L 0.296875 1.703125  C 0.0989583333333333 1.50520833333333  0 1.27083333333333  0 1  C 0 0.729166666666664  0.0989583333333333 0.494791666666666  0.296875 0.296875  C 0.494791666666667 0.0989583333333321  0.729166666666667 0  1 0  L 15 0  C 15.2708333333333 0  15.5052083333333 0.0989583333333321  15.703125 0.296875  Z " fill-rule="nonzero" fill="#797979" stroke="none" transform="matrix(1 0 0 1 2439 788 )" />
  </g>
</svg>