<?xml version="1.0" encoding="utf-8"?>
<svg version="1.1" xmlns:xlink="http://www.w3.org/1999/xlink" width="17px" height="17px" xmlns="http://www.w3.org/2000/svg">
  <g transform="matrix(1 0 0 1 -689 -536 )">
    <path d="M 697.5 537  C 701.7 537  705 540.3  705 544.5  C 705 548.7  701.7 552  697.5 552  C 693.3 552  690 548.7  690 544.5  C 690 540.3  693.3 537  697.5 537  Z " fill-rule="nonzero" fill="#ffffff" stroke="none" fill-opacity="0" />
    <path d="M 697.5 537  C 701.7 537  705 540.3  705 544.5  C 705 548.7  701.7 552  697.5 552  C 693.3 552  690 548.7  690 544.5  C 690 540.3  693.3 537  697.5 537  Z " stroke-width="2" stroke="#ff0000" fill="none" />
  </g>
</svg>