<?xml version="1.0" encoding="utf-8"?>
<svg version="1.1" xmlns:xlink="http://www.w3.org/1999/xlink" width="22px" height="25px" xmlns="http://www.w3.org/2000/svg">
  <g transform="matrix(1 0 0 1 -698 -545 )">
    <path d="M 18.0611979166667 22.94921875  C 18.2426215277778 22.7725074404762  18.3333333333333 22.563244047619  18.3333333333333 22.3214285714286  C 18.3333333333333 22.0796130952381  18.2426215277778 21.870349702381  18.0611979166667 21.6936383928571  C 17.8797743055556 21.5169270833333  17.6649305555556 21.4285714285714  17.4166666666667 21.4285714285714  C 17.1684027777778 21.4285714285714  16.9535590277778 21.5169270833333  16.7721354166667 21.6936383928571  C 16.5907118055556 21.870349702381  16.5 22.0796130952381  16.5 22.3214285714286  C 16.5 22.563244047619  16.5907118055556 22.7725074404762  16.7721354166667 22.94921875  C 16.9535590277778 23.1259300595238  17.1684027777778 23.2142857142857  17.4166666666667 23.2142857142857  C 17.6649305555556 23.2142857142857  17.8797743055556 23.1259300595238  18.0611979166667 22.94921875  Z M 19.7083333333333 14.1671316964286  C 20.0138888888889 13.2510230654762  20.1666666666667 12.4162946428571  20.1666666666667 11.6629464285714  C 20.1666666666667 9.90513392857143  19.3693576388889 9.02622767857143  17.7747395833333 9.02622767857143  C 17.5264756944444 9.02622767857143  17.2591145833333 9.04947916666667  16.97265625 9.09598214285714  C 16.8198784722222 8.81696428571428  16.5692274305556 8.59607514880952  16.220703125 8.43331473214286  C 15.8721788194444 8.27055431547619  15.5212673611111 8.18917410714286  15.16796875 8.18917410714286  C 14.8146701388889 8.18917410714286  14.4852430555556 8.27287946428572  14.1796875 8.44029017857143  C 13.7022569444444 7.94735863095238  13.1341145833333 7.70089285714286  12.4752604166667 7.70089285714286  C 12.2365451388889 7.70089285714286  11.9715711805556 7.74739583333333  11.6803385416667 7.84040178571428  C 11.3891059027778 7.93340773809524  11.1623263888889 8.04966517857143  11 8.18917410714286  L 11 3.57142857142857  C 11 3.08779761904762  10.8185763888889 2.66927083333333  10.4557291666667 2.31584821428572  C 10.0928819444444 1.96242559523809  9.66319444444445 1.78571428571428  9.16666666666667 1.78571428571428  C 8.6796875 1.78571428571428  8.25238715277778 1.96707589285714  7.884765625 2.32979910714286  C 7.51714409722222 2.69252232142857  7.33333333333333 3.10639880952381  7.33333333333333 3.57142857142857  L 7.33333333333333 11.6071428571429  C 7.14236111111111 11.6071428571429  6.91080729166667 11.5373883928571  6.638671875 11.3978794642857  C 6.36653645833333 11.2583705357143  6.10394965277778 11.1049107142857  5.85091145833333 10.9375  C 5.59787326388889 10.7700892857143  5.27322048611111 10.6166294642857  4.876953125 10.4771205357143  C 4.48068576388889 10.3376116071429  4.07725694444444 10.2678571428571  3.66666666666667 10.2678571428571  C 3.02690972222222 10.2678571428571  2.56141493055556 10.4747953869048  2.27018229166667 10.888671875  C 1.97894965277778 11.3025483630952  1.83333333333333 11.8396577380952  1.83333333333333 12.5  C 1.83333333333333 12.7232142857143  2.49696180555556 13.1417410714286  3.82421875 13.7555803571429  C 4.24435763888889 13.9787946428571  4.5546875 14.1508556547619  4.75520833333333 14.2717633928571  C 5.36631944444445 14.643787202381  6.05859375 15.1646205357143  6.83203125 15.8342633928571  C 7.60546875 16.4946056547619  8.11154513888889 16.9642857142857  8.35026041666667 17.2433035714286  C 8.89453125 17.8850446428571  9.16666666666667 18.5360863095238  9.16666666666667 19.1964285714286  L 9.16666666666667 19.6428571428571  L 18.3333333333333 19.6428571428571  L 18.3333333333333 19.1964285714286  C 18.3333333333333 18.5267857142857  18.4861111111111 17.7501860119048  18.7916666666667 16.8666294642857  C 19.0972222222222 15.9830729166667  19.4027777777778 15.083240327381  19.7083333333333 14.1671316964286  Z M 20.8470052083333 8.42633928571428  C 21.6156684027778 9.22619047619047  22 10.2818080357143  22 11.5931919642857  C 22 12.8301711309524  21.6705729166667 14.3275669642857  21.01171875 16.0853794642857  C 20.4483506944444 17.6106770833333  20.1666666666667 18.6476934523809  20.1666666666667 19.1964285714286  L 20.1666666666667 23.2142857142857  C 20.1666666666667 23.7072172619048  19.9876302083333 24.1280691964286  19.6295572916667 24.4768415178571  C 19.271484375 24.8256138392857  18.8394097222222 25  18.3333333333333 25  L 9.16666666666667 25  C 8.66059027777778 25  8.228515625 24.8256138392857  7.87044270833333 24.4768415178571  C 7.51236979166667 24.1280691964286  7.33333333333333 23.7072172619048  7.33333333333333 23.2142857142857  L 7.33333333333333 19.1964285714286  C 7.33333333333333 19.1034226190476  7.31184895833333 19.0034412202381  7.26888020833333 18.896484375  C 7.22591145833333 18.7895275297619  7.15907118055556 18.6802455357143  7.068359375 18.5686383928571  C 6.97764756944444 18.45703125  6.89171006944444 18.3523995535714  6.810546875 18.2547433035714  C 6.72938368055556 18.1570870535714  6.62196180555556 18.0454799107143  6.48828125 17.919921875  C 6.35460069444444 17.7943638392857  6.251953125 17.6990327380952  6.18033854166667 17.6339285714286  C 6.10872395833333 17.5688244047619  6.00607638888889 17.48046875  5.87239583333333 17.3688616071429  C 5.73871527777778 17.2572544642857  5.65755208333333 17.192150297619  5.62890625 17.1735491071429  C 4.92230902777778 16.5690104166667  4.30642361111111 16.1039806547619  3.78125 15.7784598214286  C 3.58072916666667 15.6575520833333  3.28472222222222 15.5040922619048  2.89322916666667 15.3180803571429  C 2.50173611111111 15.132068452381  2.15798611111111 14.9600074404762  1.86197916666667 14.8018973214286  C 1.56597222222222 14.643787202381  1.26519097222222 14.4554501488095  0.959635416666667 14.2368861607143  C 0.654079861111111 14.018322172619  0.417751736111111 13.7625558035714  0.250651041666667 13.4695870535714  C 0.0835503472222222 13.1766183035714  0 12.8534226190476  0 12.5  C 0 11.3374255952381  0.319878472222222 10.3771391369048  0.959635416666667 9.619140625  C 1.59939236111111 8.86114211309524  2.50173611111111 8.48214285714286  3.66666666666667 8.48214285714286  C 4.31597222222222 8.48214285714286  4.92708333333333 8.5844494047619  5.5 8.7890625  L 5.5 3.57142857142857  C 5.5 2.60416666666667  5.86284722222222 1.76711309523809  6.58854166666667 1.06026785714286  C 7.31423611111111 0.353422619047622  8.16883680555556 0  9.15234375 0  C 10.1549479166667 0  11.0190972222222 0.351097470238096  11.7447916666667 1.05329241071428  C 12.4704861111111 1.75548735119047  12.8333333333333 2.59486607142857  12.8333333333333 3.57142857142857  L 12.8333333333333 5.92912946428572  C 13.4253472222222 5.96633184523809  13.9934895833333 6.13839285714286  14.5377604166667 6.4453125  C 14.73828125 6.41741071428572  14.9435763888889 6.40345982142857  15.1536458333333 6.40345982142857  C 16.1180555555556 6.40345982142857  16.9678819444444 6.68247767857143  17.703125 7.24051339285714  C 19.0303819444444 7.23121279761905  20.0783420138889 7.62648809523809  20.8470052083333 8.42633928571428  Z " fill-rule="nonzero" fill="#ff0000" stroke="none" transform="matrix(1 0 0 1 698 545 )" />
  </g>
</svg>