<?xml version="1.0" encoding="utf-8"?>
<svg version="1.1" xmlns:xlink="http://www.w3.org/1999/xlink" width="50px" height="45px" xmlns="http://www.w3.org/2000/svg">
  <g transform="matrix(1 0 0 1 -294 -274 )">
    <path d="M 9.62611607142857 33.3291770573566  C 9.62611607142857 33.5162094763092  9.53311011904762 33.6097256857855  9.34709821428571 33.6097256857855  C 9.30989583333333 33.6097256857855  9.25409226190476 33.5910224438903  9.1796875 33.5536159600998  C 7.57998511904762 32.4875311720698  6.01283482142857 31.1315461346633  4.47823660714286 29.4856608478803  C 2.94363839285714 27.8397755610973  1.64620535714286 26.1564837905237  0.5859375 24.4357855361596  C 0.1953125 23.8746882793017  0 23.2294264339152  0 22.5  C 0 22.3316708229426  0.0186011904761905 22.1539900249377  0.0558035714285714 21.966957605985  C 0.0930059523809524 21.7799251870324  0.130208333333333 21.6115960099751  0.167410714285714 21.461970074813  C 0.204613095238095 21.3123441396509  0.269717261904762 21.1440149625935  0.362723214285714 20.9569825436409  C 0.455729166666667 20.7699501246883  0.534784226190476 20.6203241895262  0.599888392857143 20.5081047381546  C 0.66499255952381 20.395885286783  0.76264880952381 20.2369077306733  0.892857142857143 20.0311720698254  C 1.02306547619048 19.8254364089776  1.11607142857143 19.6851620947631  1.171875 19.610349127182  C 1.22767857142857 19.535536159601  1.33928571428571 19.3905860349127  1.50669642857143 19.1754987531172  C 1.67410714285714 18.9604114713217  1.77641369047619 18.824812967581  1.81361607142857 18.7687032418953  C 5.23623511904762 14.0741895261845  9.44010416666667 10.6608478802993  14.4252232142857 8.5286783042394  C 12.3790922619048 4.82543640897756  11.3560267857143 2.85224438902743  11.3560267857143 2.60910224438903  C 11.3560267857143 2.25374064837905  11.5141369047619 1.98254364089775  11.8303571428571 1.79551122194514  C 13.9880952380952 0.598503740648375  15.1785714285714 0  15.4017857142857 0  C 15.7366071428571 0  15.9970238095238 0.149625935162094  16.1830357142857 0.448877805486286  L 19.6428571428571 6.87344139650873  C 21.3541666666667 6.51807980049875  23.139880952381 6.34039900249377  25 6.34039900249377  C 29.9479166666667 6.34039900249377  34.5749627976191 7.62624688279301  38.8811383928571 10.1979426433915  C 43.1873139880952 12.76963840399  46.7075892857143 16.2250623441396  49.4419642857143 20.5642144638404  C 49.8139880952381 21.1440149625935  50 21.7892768079801  50 22.5  C 50 23.2107231920199  49.8139880952381 23.8559850374065  49.4419642857143 24.4357855361596  C 47.749255952381 27.0916458852868  45.7170758928571 29.4622817955112  43.3454241071429 31.5476932668329  C 40.9737723214286 33.6331047381546  38.3835565476191 35.2743142144638  35.5747767857143 36.4713216957606  C 37.6209077380952 40.1745635910224  38.6439732142857 42.1477556109726  38.6439732142857 42.390897755611  C 38.6439732142857 42.7649625935162  38.4858630952381 43.0361596009975  38.1696428571429 43.2044887780549  C 36.0119047619048 44.4014962593516  34.8307291666667 45  34.6261160714286 45  C 34.272693452381 45  34.0029761904762 44.8503740648379  33.8169642857143 44.5511221945137  L 30.3571428571429 38.1265586034913  L 28.5714285714286 34.788029925187  L 16.1830357142857 11.783042394015  L 16.3783482142857 11.5866583541147  C 15.2994791666667 12.035536159601  14.3787202380952 12.4750623441396  13.6160714285714 12.9052369077307  C 13.671875 12.998753117207  14.8530505952381 15.1870324189526  17.1595982142857 19.4700748129676  C 19.4661458333333 23.7531172069825  21.7261904761905 27.9519950124688  23.9397321428571 32.0667082294264  C 26.1532738095238 36.181421446384  27.2600446428571 38.2668329177057  27.2600446428571 38.3229426433915  C 27.2600446428571 38.4538653366584  27.1763392857143 38.538029925187  27.0089285714286 38.5754364089776  C 26.7671130952381 38.6315461346633  26.0974702380952 38.6596009975062  25 38.6596009975062  C 23.9397321428571 38.6596009975062  23.3816964285714 38.5941396508728  23.3258928571429 38.463216957606  L 10.6026785714286 14.8690773067332  C 9.87723214285714 15.3927680798005  9.11458333333333 16.0286783042394  8.31473214285714 16.7768079800499  C 8.76116071428571 17.5810473815461  10.7514880952381 21.2609102244389  14.2857142857143 27.8163965087282  C 17.8199404761905 34.3718827930175  19.5870535714286 37.6870324189526  19.5870535714286 37.7618453865337  C 19.5870535714286 37.9488778054863  19.4847470238095 38.0423940149626  19.2801339285714 38.0423940149626  C 19.0197172619048 38.0423940149626  18.2524181547619 37.8366583541147  16.9782366071429 37.425187032419  C 15.7040550595238 37.0137157107232  15.0297619047619 36.7518703241895  14.9553571428571 36.639650872818  L 11.9977678571429 31.1128428927681  L 5.74776785714286 19.5261845386534  C 4.92931547619048 20.5174563591022  4.20386904761905 21.5087281795511  3.57142857142857 22.5  C 3.60863095238095 22.5561097256858  3.77604166666667 22.7899002493766  4.07366071428571 23.2013715710723  C 4.37127976190476 23.6128428927681  4.58519345238095 23.9307980049875  4.71540178571429 24.1552369077307  L 9.62611607142857 33.3291770573566  Z M 36.1886160714286 26.3294887780549  C 35.3143601190476 28.0969451371571  34.0866815476191 29.569825436409  32.5055803571429 30.7481296758105  L 33.8727678571429 33.3011221945137  C 38.9508928571429 31.2250623441397  43.1361607142857 27.6246882793017  46.4285714285714 22.5  C 43.0803571428571 17.3192019950125  38.8113839285714 13.681421446384  33.6216517857143 11.5866583541147  C 34.8679315476191 12.7836658354115  35.8258928571429 14.1723815461347  36.4955357142857 15.7528054862843  C 37.1651785714286 17.3332294264339  37.5 18.9837905236908  37.5 20.7044887780549  C 37.5 22.6870324189526  37.0628720238095 24.5620324189526  36.1886160714286 26.3294887780549  Z M 24.0513392857143 12.568578553616  C 23.7909226190476 12.8304239401496  23.6607142857143 13.1483790523691  23.6607142857143 13.5224438902743  C 23.6607142857143 13.8965087281796  23.7909226190476 14.214463840399  24.0513392857143 14.4763092269327  C 24.311755952381 14.7381546134663  24.6279761904762 14.8690773067332  25 14.8690773067332  C 26.5997023809524 14.8690773067332  27.9668898809524 15.4395261845387  29.1015625 16.5804239401496  C 30.2362351190476 17.7213216957606  30.8035714285714 19.0960099750623  30.8035714285714 20.7044887780549  C 30.8035714285714 21.0785536159601  30.9337797619048 21.3965087281795  31.1941964285714 21.6583541147132  C 31.4546130952381 21.9201995012469  31.7708333333333 22.0511221945137  32.1428571428571 22.0511221945137  C 32.514880952381 22.0511221945137  32.8311011904762 21.9201995012469  33.0915178571429 21.6583541147132  C 33.3519345238095 21.3965087281795  33.4821428571429 21.0785536159601  33.4821428571429 20.7044887780549  C 33.4821428571429 18.3478802992519  32.6543898809524 16.3372817955112  30.9988839285714 14.6726932668329  C 29.3433779761905 13.0081047381546  27.34375 12.1758104738155  25 12.1758104738155  C 24.6279761904762 12.1758104738155  24.311755952381 12.3067331670823  24.0513392857143 12.568578553616  Z M 33.8169642857143 11.783042394015  L 33.8727678571429 11.6988778054863  L 33.6216517857143 11.5866583541147  L 33.8169642857143 11.783042394015  Z " fill-rule="nonzero" fill="#797979" stroke="none" transform="matrix(1 0 0 1 294 274 )" />
  </g>
</svg>