<?xml version="1.0" encoding="utf-8"?>
<svg version="1.1" xmlns:xlink="http://www.w3.org/1999/xlink" width="50px" height="46px" xmlns="http://www.w3.org/2000/svg">
  <g transform="matrix(1 0 0 1 -1095 -273 )">
    <path d="M 4.13161057692308 41.8821614583333  C 4.32191506410256 42.0718315972222  4.54727564102564 42.1666666666667  4.80769230769231 42  L 23 42  L 23 8  L 4 8  L 4 41.2083333333333  C 3.84615384615385 41.4678819444445  3.94130608974359 41.6924913194445  4.13161057692308 41.8821614583333  Z M 45.8683894230769 41.8821614583333  C 46.0586939102564 41.6924913194445  46.1538461538462 41.4678819444445  46 41.2083333333333  L 46 8  L 27 8  L 27 42  L 45.1923076923077 42  C 45.4527243589744 42.1666666666667  45.6780849358974 42.0718315972222  45.8683894230769 41.8821614583333  Z M 48.5877403846154 1.40755208333334  C 49.5292467948718 2.34592013888889  50 3.47395833333333  50 4.79166666666667  L 50 41.2083333333333  C 50 42.5260416666667  49.5292467948718 43.6540798611111  48.5877403846154 44.5924479166667  C 47.646233974359 45.5308159722222  46.5144230769231 46  45.1923076923077 46  L 4.80769230769231 46  C 3.48557692307692 46  2.35376602564103 45.5308159722222  1.41225961538462 44.5924479166667  C 0.470753205128205 43.6540798611111  0 42.5260416666667  0 41.2083333333333  L 0 4.79166666666667  C 0 3.47395833333333  0.470753205128205 2.34592013888889  1.41225961538462 1.40755208333334  C 2.35376602564103 0.469184027777773  3.48557692307692 0  4.80769230769231 0  L 45.1923076923077 0  C 46.5144230769231 0  47.646233974359 0.469184027777773  48.5877403846154 1.40755208333334  Z " fill-rule="nonzero" fill="#797979" stroke="none" transform="matrix(1 0 0 1 1095 273 )" />
  </g>
</svg>